<svg xmlns="http://www.w3.org/2000/svg" width="256" height="256"><path fill="#5E5E5E" d="M17 0a200993 200993 0 0 1 96.805-.056q16.14-.007 32.279-.021 16.548-.015 33.097-.017 9.3 0 18.6-.012 8.742-.01 17.485-.007 3.22 0 6.437-.006 4.375-.007 8.749-.001l2.608-.01c5.826.016 5.826.016 6.94 1.13.25 2.424.43 4.819.563 7.25l.128 2.242c.488 9.498.393 19.001.309 28.508l2.047.848 2.703 1.215 2.672 1.16c3.353 2.311 5.022 5.089 6.578 8.777.404 2.825.603 5.265.607 8.084l.05 2.449c.05 2.76.07 5.522.09 8.283q.04 3.06.086 6.121c.096 7.354.136 14.708.167 22.063l.01 2.173c.1 23.86.092 47.722.062 71.583q-.016 13.818-.022 27.637-.015 28.303-.05 56.607-39.214.036-78.43.052-18.216.007-36.434.023-15.918.015-31.836.02-8.392 0-16.784.01-7.974.012-15.949.008-2.854 0-5.71.006C47.23 256.166 23.629 255.482 0 255V41c4.445-1.778 6.281-2.234 10.813-2.125l2.957.055L16 39l-.016-3.365q-.026-6.166-.039-12.333-.008-2.671-.02-5.343a2553 2553 0 0 1-.023-7.67l-.015-2.421c0-5.64 0-5.64 1.113-7.868"/><path fill="#D3E0D6" d="M17 0a200993 200993 0 0 1 96.805-.056q16.14-.007 32.279-.021 16.548-.015 33.097-.017 9.3 0 18.6-.012 8.742-.01 17.485-.007 3.22 0 6.437-.006 4.375-.007 8.749-.001l2.608-.01c5.826.016 5.826.016 6.94 1.13.25 2.424.43 4.819.563 7.25l.128 2.242c.488 9.498.393 19.001.309 28.508l7 3-3 2-5-2v55c-15.767.04-15.767.04-22.707.049q-6.99.008-13.977.026c-9.71.028-19.419.015-29.128-.06q-3.273-.021-6.545-.036a957 957 0 0 1-12.323-.17l-3.687-.017c-7.485-.189-12.482-1.5-18.633-5.792l-2.652-1.66c-3.753-3.74-6.222-8.238-8.91-12.778a1992 1992 0 0 0-3.38-5.62l-1.49-2.51C111.944 61.26 107.14 57.66 99 55c-6.309-1.04-12.736-.84-19.11-.805q-2.73-.017-5.463-.041c-4.755-.036-9.509-.037-14.263-.03-4.867.001-9.734-.032-14.602-.062-9.52-.053-19.041-.07-28.562-.062-.593-8.165-1.156-16.298-1.133-24.488l-.003-2.41q0-2.466.006-4.932c.005-2.525 0-5.05-.007-7.574q0-2.418.004-4.834l-.006-2.279C15.885 2.23 15.885 2.23 17 0"/><path fill="#718675" d="m64.415 8.866 3.56-.013 3.942.002 4.124-.01q5.616-.014 11.232-.012 4.681-.002 9.364-.008 11.043-.013 22.088-.01 11.404-.001 22.81-.026 9.78-.019 19.559-.018 5.846.002 11.692-.013 5.498-.014 10.997-.003c1.99.002 3.98-.006 5.97-.015l3.578.013 3.116-.002C199 9 199 9 202 11c.248 2.772.327 5.299.25 8.063l-.016 2.26c-.08 5.523-.08 5.523-1.234 6.677-1.818.099-3.64.126-5.46.127l-3.59.009-3.975-.007-4.158.006q-5.663.005-11.325 0c-3.942-.003-7.885 0-11.828 0q-9.936.004-19.871-.005-11.5-.006-22.997.002-9.858.007-19.715.003-5.894-.003-11.787.001-5.543.004-11.083-.005-3.013-.002-6.025.005l-3.6-.009-3.14-.001C60 28 60 28 58 27q-.04-4.22-.062-8.437l-.026-2.432c-.009-2.044.036-4.088.088-6.131 1.73-1.73 4.058-1.13 6.415-1.134"/><path fill="#708574" d="M118 44q16.01-.034 32.023-.052 7.433-.007 14.867-.023 7.169-.016 14.336-.02 2.742-.003 5.482-.01 3.825-.01 7.651-.009l2.313-.01c5.214.01 5.214.01 6.328 1.124.086 1.343.107 2.69.098 4.035l-.01 2.451-.025 2.577-.014 2.587q-.02 3.175-.049 6.35-15.764.07-31.528.104-7.32.014-14.639.047-7.06.032-14.122.039-2.696.004-5.393.021c-2.514.015-5.028.017-7.542.016l-2.262.022c-3.73-.015-5.327-.124-8.514-2.249a58 58 0 0 1-.25-7.5l.016-2.09c.08-5.1.08-5.1 1.234-7.41"/><path fill="#595859" d="M11.313 38.875 17 39v15l-4 1c-1.511 1.465-1.511 1.465-2.687 3.313l-1.262 1.8c-2.007 3.604-2.18 7.035-2.202 11.107l-.026 3.2-.012 3.493-.026 3.691q-.026 3.969-.045 7.938-.032 6.27-.077 12.54c-.065 9.624-.12 19.248-.176 28.872q-.074 13.243-.165 26.485-.042 6.24-.071 12.479-.027 4.779-.062 9.557l-.012 3.512-.026 3.174-.015 2.775C6 191 6 191 5 192a75 75 0 0 0-.098 4.672l.01 3.013.026 3.28.011 3.344c.016 4.744.045 9.489.072 14.233q.026 5.18.042 10.36l.025 3.274.01 3.023.016 2.669C5 242 5 242 4 244l-.437 2.5C3 249 3 249 1 251c-1.79-1.79-1.123-4.215-1.13-6.6l.01-2.455-.003-2.589c-.002-2.885.004-5.77.01-8.655l-.001-6.178q.001-8.414.013-16.828c.006-5.855.006-11.71.008-17.565q.005-16.643.021-33.287.015-18.943.022-37.886Q-.034 79.98 0 41c4.009-1.718 6.931-2.221 11.313-2.125"/><path fill="#F4F4F4" d="M152.766 139.848c6.732 5.553 12.214 12.333 13.539 21.188 1.143 12.64-1.779 21.508-8.914 31.905-4.561 6.752-4.793 12.686-4.985 20.633-.44 3.712-.728 4.897-3.406 7.426-3.23.502-3.23.502-7.187.496l-2.118.005a343 343 0 0 1-4.428-.034 364 364 0 0 0-6.775-.008q-2.153-.01-4.304-.025l-3.958-.03c-3.23-.404-3.23-.404-5.156-1.76-1.629-2.493-1.451-4.695-1.511-7.644-.616-10.477-4.265-17.798-9.946-26.465C98.433 177.41 98.082 169.572 99 160c.868-3.372 2.14-6.067 4-9l1.32-2.11c11.144-16.198 31.935-20.073 48.446-9.042M109 149c-5.211 7.694-7.422 14.754-6 24 1.655 6.784 4.58 12.094 8.543 17.773 5.564 8.503 5.706 15.71 6.457 26.227h29l1-13c2.109-7.381 4.896-12.588 9.383-18.75 5.687-7.912 5.664-16.445 4.219-25.84-1.967-7.265-6.901-13.11-13.243-17.05-13.964-7.105-28.827-5.85-39.359 6.64"/><path fill="#3B3839" d="M11.313 38.875 17 39v15l-4.25.75C8.746 55.644 6.446 56.536 4 60c-1.233 3.603-1.154 7.153-1.196 10.935l-.028 2.114c-.029 2.337-.05 4.674-.073 7.01l-.06 5.027q-.079 6.824-.148 13.648c-.05 4.753-.106 9.507-.16 14.261q-.154 13.504-.298 27.008-.166 15.374-.34 30.747Q1.34 202.375 1 234H0V41c4.573-1.829 6.602-2.229 11.313-2.125"/><path fill="#7B8E7E" d="m105.047 8.832 4.026-.005q10.509-.014 21.018-.012 9.778-.001 19.555-.026 8.43-.019 16.86-.018 5.02.002 10.041-.013c3.717-.01 7.434-.007 11.151 0 1.107-.007 2.213-.012 3.353-.018l3.058.013 2.658-.002C199 9 199 9 202 11c.221 2.789.281 5.347.188 8.125l-.042 2.285A476 476 0 0 1 202 27l-2 1c-1.442-2.884-1.094-5.417-1.062-8.625l.027-3.602L199 13h-6l-1 2v-2l-2.926.008c-27.03.066-54.05-.14-81.078-.472q-7.656-.091-15.312-.18A59955 59955 0 0 1 63 12l-1-2c14.325-1.328 28.674-1.164 43.047-1.168"/><path fill="#415D4A" d="m59 11 3 1v13l2.692-.007q17.122-.04 34.246-.055l2.767-.003c32.777-.027 65.527.303 98.295 1.065v2q-27.329.035-54.658.052-12.689.007-25.377.023-11.055.015-22.112.02-5.858 0-11.714.01-5.508.01-11.017.008-2.994.002-5.989.011l-3.578-.004-3.122.003C60 28 60 28 58 27q-.04-3.72-.062-7.437l-.026-2.143c-.009-1.807.036-3.614.088-5.42z"/><path fill="#45614D" d="m119 45 2 1v14h79l-1 3q-15.372.07-30.746.104-7.137.014-14.275.047-6.885.032-13.772.039-2.63.004-5.26.021c-2.451.015-4.903.017-7.354.016l-2.206.022c-3.693-.015-5.227-.142-8.387-2.249a62 62 0 0 1-.187-7.625l.04-2.14c.036-1.746.09-3.49.147-5.235z"/><path fill="#788A7A" d="m134.253 43.87 2.155-.005q3.507-.004 7.014.002l4.881-.003q5.105-.002 10.208.006 6.555.006 13.112-.004 5.034-.005 10.068 0 2.418 0 4.837-.002 3.368-.003 6.737.007l3.877.002C200 44 200 44 201 45c.086 1.343.107 2.69.098 4.035l-.01 2.451-.026 2.576-.013 2.588q-.02 3.175-.049 6.35l-2-1V47l-4.7.016q-8.795.026-17.59.039-3.776.008-7.552.02c-15.752.054-31.43-.178-47.158-1.075v-1c4.134-.994 8.007-1.127 12.253-1.13"/><path fill="#B5CDBA" d="m116 45 2 1v15c3.022 1.511 6.162 1.18 9.479 1.205l2.336.03q3.831.046 7.662.081l5.305.063q6.988.082 13.977.153 7.128.077 14.257.161 13.992.162 27.984.307l-1 2c-22.949.735-45.808 1.205-68.759.319L127 65.236c-1.982-.074-3.964-.158-5.945-.242-3.1-.154-3.1-.154-6.055 1.006l-5-7 2-2h3l-.035-2.117-.028-2.758-.035-2.742C115 47 115 47 116 45"/><path fill="#ADB6AF" d="M19 2h1q.219 6.796.427 13.593.072 2.298.146 4.598.107 3.356.208 6.711l.067 1.988C21.085 36.932 21 44.943 21 53h51v1H17l-.062-17.937-.028-5.668-.008-4.422-.015-2.34c0-1.878.05-3.756.113-5.633l1-1c.237-2.526.422-5.031.563-7.562l.13-2.155Q18.852 4.643 19 2"/><path fill="#86A28D" d="M57 12h1v15l141 1v1q-27.745.035-55.492.052-12.882.007-25.764.023-11.224.015-22.447.02-5.947 0-11.893.01-5.592.01-11.182.008-2.058 0-4.115.006-2.798.006-5.596.001l-3.17.003C57 29 57 29 56 28c-.1-2.31-.13-4.625-.125-6.937l-.008-3.84C56 14 56 14 57 12"/><path fill="#A0B0A3" d="M112 9q16.938-.07 33.875-.104 7.864-.014 15.728-.047 7.587-.032 15.173-.039 2.897-.005 5.795-.021c2.7-.015 5.401-.017 8.102-.016l2.433-.022c3.835.014 5.625.07 8.894 2.249.221 2.789.281 5.347.188 8.125l-.042 2.285A476 476 0 0 1 202 27l-2 1c-1.442-2.884-1.094-5.417-1.062-8.625l.027-3.602L199 13h-6l-1 2v-2h-8l1-2-73-1z"/><path fill="#E5EAE7" d="M17 0h48v1H21v33h-1l-1-17c-1.618 1.618-1.223 3.456-1.316 5.691l-.127 2.862-.12 3.01-.13 3.021Q17.147 35.292 17 39h-1q-.037-7.849-.055-15.698-.008-2.671-.02-5.343a2553 2553 0 0 1-.023-7.67l-.015-2.421c0-5.64 0-5.64 1.113-7.868"/><path fill="#FDFDFD" d="M117 234h32v4h-32z"/><path fill="#F4F4F4" d="M117 228h31l1 4h-33z"/><path fill="#F8F8F8" d="M116 223h33l-1 4h-31z"/><path fill="#FDFDFD" d="M120 240h25l-1 5h-22z"/><path fill="#F2F2F2" d="M99.227 203.31 101 204c-2.091 4.634-5.323 7.69-8.875 11.25l-1.895 1.969-1.847 1.86c-.553.56-1.106 1.121-1.675 1.7C85 222 85 222 81 222c.894-5.309 4.634-8.148 8.313-11.812l2.052-2.14 1.998-2.005 1.822-1.843C97 203 97 203 99.227 203.31"/><path fill="#F4F4F4" d="M82 120c3.548.579 5.184 1.827 7.672 4.379l2.012 2.04 2.066 2.144 2.113 2.154A966 966 0 0 1 101 136l-1 3c-3.548-.579-5.184-1.827-7.672-4.379l-2.012-2.04-2.066-2.143-2.113-2.155A966 966 0 0 1 81 123z"/><path fill="#F2F2F2" d="M184 120c-.584 3.498-1.792 5.176-4.273 7.672l-2 2.012-2.102 2.066-2.078 2.113-2.008 1.996-1.837 1.828C168 139 168 139 165 139c.206-5.666 4.001-8.593 7.813-12.312l1.908-1.956 1.861-1.845 1.695-1.681C180 120 180 120 184 120"/><path fill="#F5F5F5" d="M166 203c4.652 2.094 7.692 5.362 11.25 8.938l1.969 1.92 1.86 1.857 1.7 1.691C184 219 184 219 184 222c-5.67-.206-8.638-4.01-12.375-7.812l-1.98-1.909-1.856-1.861-1.697-1.695C165 207 165 207 165.326 204.786z"/><path fill="#F3F3F3" d="m131 99 4 1v24l-4 1z"/><path fill="#FCFCFC" d="M180 169h24v4h-24z"/><path fill="#FBFBFB" d="M61 169h25v4H61z"/><path fill="#889B8B" d="M200 44c1 1 1 1 1.114 2.766l-.016 2.27-.01 2.45-.025 2.577-.014 2.587q-.02 3.175-.049 6.35l-2-1V47h-23v-2c16.615-1.48 16.615-1.48 24-1"/><path fill="#364D3F" d="m59 11 3 1v14h26v1H58c0-15 0-15 1-16"/><path fill="#92A394" d="M202 11v16l-2 1c-1.442-2.884-1.094-5.417-1.062-8.625l.027-3.602L199 13h-6l-1 2v-2h-8l1-2c2.8-.45 2.8-.45 6.313-.687l3.488-.262C198 10 198 10 202 11"/><path fill="#3B4841" d="m119 45 2 1v14l-4 1V46z"/><path fill="#B1BCB7" d="M18 38h2v15h-3q-.04-3.187-.062-6.375l-.036-3.586C17 40 17 40 18 38"/><path fill="#9FB4A7" d="m116 45 2 1-.07 3.21q-.029 2.083-.055 4.165c-.017.699-.034 1.397-.05 2.117-.018 1.837.072 3.674.175 5.508l2 2-5-1c-1.551-5.171-1.444-12.113 1-17"/><path fill="#6B6B6B" d="m11.313 38.875 3.238.055L17 39v1l-2.082.113-2.73.2-2.708.175C6.694 41.063 5.76 41.821 4 44l1 3-5-1v-5c3.929-1.851 6.988-2.22 11.313-2.125"/><path fill="#99ADA0" d="M57 12h1v15l6 1v1q-3.5.062-7 0c-1-1-1-1-1.133-4.09l.008-3.847-.008-3.84C56 14 56 14 57 12"/><path fill="#666966" d="M129 88c3.436 1.527 6.12 3.6 9 6-3.325 1.108-5.622.845-9 0-1.125-3.75-1.125-3.75 0-6"/><path fill="#BED1C2" d="M56 10h2l-.465 1.547c-.704 3.228-.884 6.407-1.097 9.703l-.254 3.828L56 28c-2-2-2-2-2.266-4.934l.016-3.503-.016-3.497C54 13 54 13 56 10"/><path fill="#6A7C6F" d="M59 9h18v1H62v2h-4z"/><path fill="#686868" d="M90 216c1.063 1.875 1.063 1.875 2 4l-1 2h-6z"/><path fill="#CBD7CE" d="m112 57 3 1v5c-1.937-.812-1.937-.812-4-2l-1-3z"/></svg>