<?xml version="1.0" encoding="UTF-8"?>
<svg version="1.1" xmlns="http://www.w3.org/2000/svg" width="256" height="256">
<path d="M0 0 C0.63035156 0.56847656 1.26070312 1.13695312 1.91015625 1.72265625 C23.21556515 21.41630845 34.70718929 52.56926137 36 81 C36.42421449 116.00748473 24.19647409 146.87151358 0 172 C-0.94939453 173.06154297 -0.94939453 173.06154297 -1.91796875 174.14453125 C-14.34618889 187.61529525 -32.12122159 196.52469056 -49.25 202.375 C-49.94593262 202.61387939 -50.64186523 202.85275879 -51.35888672 203.09887695 C-61.99102589 206.52352145 -72.63749225 207.3513137 -83.75317383 207.31567383 C-85.80018759 207.31251898 -87.84574197 207.33605854 -89.89257812 207.36132812 C-121.36329045 207.5125491 -149.66743385 193.50425414 -172 172 C-172.70769531 171.36707031 -173.41539062 170.73414063 -174.14453125 170.08203125 C-195.10628392 150.74257308 -206.62414708 119.40220539 -207.92529297 91.52050781 C-208.88341037 58.20445311 -198.21313282 27.79195615 -175.31640625 3.421875 C-174.55199219 2.62265625 -173.78757813 1.8234375 -173 1 C-172.20464844 0.11828125 -171.40929687 -0.7634375 -170.58984375 -1.671875 C-150.11121299 -23.54045807 -119.38789129 -34.97343933 -89.82666016 -35.97314453 C-55.1818753 -36.30229692 -24.68886296 -24.08761211 0 0 Z M-87 7 C-87.96958001 9.90874004 -88.12880274 11.78989791 -88.1328125 14.81640625 C-88.13410156 15.74517578 -88.13539062 16.67394531 -88.13671875 17.63085938 C-88.13285156 18.59830078 -88.12898438 19.56574219 -88.125 20.5625 C-88.12886719 21.53380859 -88.13273437 22.50511719 -88.13671875 23.50585938 C-88.13542969 24.43333984 -88.13414063 25.36082031 -88.1328125 26.31640625 C-88.13168457 27.16662354 -88.13055664 28.01684082 -88.12939453 28.89282227 C-88.13451375 31.05726615 -88.13451375 31.05726615 -87 33 C-86.01 33 -85.02 33 -84 33 C-84 24.42 -84 15.84 -84 7 C-84.99 7 -85.98 7 -87 7 Z M-141 29 C-141.39081754 32.83332882 -141.39081754 32.83332882 -139.68652344 34.81518555 C-139.08356445 35.4162915 -138.48060547 36.01739746 -137.859375 36.63671875 C-137.20066406 37.29607422 -136.54195313 37.95542969 -135.86328125 38.63476562 C-135.16589844 39.31216797 -134.46851563 39.98957031 -133.75 40.6875 C-133.06808594 41.37650391 -132.38617188 42.06550781 -131.68359375 42.77539062 C-127.50856657 47.06022027 -127.50856657 47.06022027 -122 49 C-122.57785854 45.36832308 -123.94687096 43.67805608 -126.52734375 41.109375 C-127.23697266 40.40039062 -127.94660156 39.69140625 -128.67773438 38.9609375 C-129.42345703 38.23132813 -130.16917969 37.50171875 -130.9375 36.75 C-131.67935547 36.00492187 -132.42121094 35.25984375 -133.18554688 34.4921875 C-136.53418002 30.56785138 -136.53418002 30.56785138 -141 29 Z M-34.90112305 30.56054688 C-35.59761963 31.27275391 -36.29411621 31.98496094 -37.01171875 32.71875 C-38.14770508 33.86923828 -38.14770508 33.86923828 -39.30664062 35.04296875 C-40.09232422 35.85378906 -40.87800781 36.66460937 -41.6875 37.5 C-42.48478516 38.31082031 -43.28207031 39.12164062 -44.10351562 39.95703125 C-46.0758748 41.96482203 -48.04091492 43.9792687 -50 46 C-49.67 46.99 -49.34 47.98 -49 49 C-44.14752074 46.83672567 -40.95303699 43.28303716 -37.25 39.5625 C-36.55261719 38.88123047 -35.85523438 38.19996094 -35.13671875 37.49804688 C-34.47800781 36.83998047 -33.81929687 36.18191406 -33.140625 35.50390625 C-32.53766602 34.90392822 -31.93470703 34.3039502 -31.31347656 33.68579102 C-29.69269367 31.96176551 -29.69269367 31.96176551 -30 29 C-33.02345963 28.6827626 -33.02345963 28.6827626 -34.90112305 30.56054688 Z M-114 57 C-120.16161323 65.26651216 -123.60803523 74.29822037 -122.7890625 84.671875 C-121.48041142 93.41267657 -117.92638513 100.33758825 -112.875 107.5 C-107.44043018 115.50516326 -106.66498324 123.36418599 -106.6015625 132.8984375 C-106.2668773 136.10795996 -106.2668773 136.10795996 -103.93969727 138.17651367 C-100.30777383 140.42938603 -97.491392 140.47549041 -93.36328125 140.27734375 C-92.64262985 140.25660294 -91.92197845 140.23586212 -91.17948914 140.2144928 C-89.66382241 140.16608669 -88.14845038 140.10749915 -86.63354492 140.03930664 C-84.30983022 139.9373829 -81.98726542 139.8735943 -79.66210938 139.81445312 C-78.18741917 139.76266941 -76.71280345 139.70870882 -75.23828125 139.65234375 C-74.54245438 139.63340561 -73.8466275 139.61446747 -73.12971497 139.59495544 C-70.96375331 139.51893741 -70.96375331 139.51893741 -68 139 C-65.57194758 135.35792136 -65.52870453 132.28928644 -65.1875 128.0625 C-64.24581244 118.69429813 -62.01594991 110.47974774 -55.9375 103.0625 C-50.83456263 96.73327536 -48.157858 87.50404031 -48.62109375 79.375 C-50.46013554 67.84781022 -54.70835666 59.13573898 -63.75 51.6875 C-80.13600935 40.41819472 -100.26105235 42.94825669 -114 57 Z M-163 83 C-163.33 83.99 -163.66 84.98 -164 86 C-160.44986171 86.83088343 -157.33590633 87.07031086 -153.69921875 86.87890625 C-152.23452148 86.80639648 -152.23452148 86.80639648 -150.74023438 86.73242188 C-149.73283203 86.67634766 -148.72542969 86.62027344 -147.6875 86.5625 C-146.66076172 86.51029297 -145.63402344 86.45808594 -144.57617188 86.40429688 C-142.05043913 86.27507334 -139.52514739 86.14012709 -137 86 C-137.33 85.01 -137.66 84.02 -138 83 C-146.25 83 -154.5 83 -163 83 Z M-33 83 C-33.33 83.99 -33.66 84.98 -34 86 C-25.42 86 -16.84 86 -8 86 C-8 85.01 -8 84.02 -8 83 C-16.25 83 -24.5 83 -33 83 Z M-126.90112305 122.52880859 C-127.59761963 123.22828613 -128.29411621 123.92776367 -129.01171875 124.6484375 C-130.14770508 125.78539062 -130.14770508 125.78539062 -131.30664062 126.9453125 C-132.09232422 127.74710938 -132.87800781 128.54890625 -133.6875 129.375 C-134.48478516 130.1690625 -135.28207031 130.963125 -136.10351562 131.78125 C-140.26528244 135.31040779 -140.26528244 135.31040779 -142 140 C-138.01967036 139.48073328 -136.05599021 138.56077787 -133.23046875 135.7265625 C-132.56982422 135.0665625 -131.90917969 134.4065625 -131.22851562 133.7265625 C-130.55498047 133.03304687 -129.88144531 132.33953125 -129.1875 131.625 C-128.49462891 130.93921875 -127.80175781 130.2534375 -127.08789062 129.546875 C-123.08164809 125.9450204 -123.08164809 125.9450204 -122 121 C-125.01695346 120.68666493 -125.01695346 120.68666493 -126.90112305 122.52880859 Z M-50 121 C-48.5735422 124.2586636 -46.83295838 126.4024854 -44.3046875 128.890625 C-43.58925781 129.59960938 -42.87382812 130.30859375 -42.13671875 131.0390625 C-41.01716797 132.13347656 -41.01716797 132.13347656 -39.875 133.25 C-39.12089844 133.99507812 -38.36679688 134.74015625 -37.58984375 135.5078125 C-35.73099228 137.3431342 -33.86762995 139.1736191 -32 141 C-31.34 140.67 -30.68 140.34 -30 140 C-31.40663551 135.19472342 -34.26145922 132.55711377 -37.9375 129.375 C-39.00952492 128.42494198 -40.08115153 127.47443429 -41.15234375 126.5234375 C-42.09207031 125.69070312 -43.03179687 124.85796875 -44 124 C-44.55816406 123.39414063 -45.11632812 122.78828125 -45.69140625 122.1640625 C-47.08167886 120.66767967 -47.08167886 120.66767967 -50 121 Z M-103 142 C-103 142.99 -103 143.98 -103 145 C-101.32804023 146.67195977 -99.29109371 146.12785168 -97.05909729 146.13894653 C-96.02630898 146.13591019 -96.02630898 146.13591019 -94.97265625 146.1328125 C-94.26854111 146.13376923 -93.56442596 146.13472595 -92.838974 146.13571167 C-91.34683137 146.13639341 -89.85468579 146.13453952 -88.36254883 146.13037109 C-86.07561582 146.12503063 -83.78887992 146.1303121 -81.50195312 146.13671875 C-80.05468707 146.13605781 -78.60742113 146.13477632 -77.16015625 146.1328125 C-76.13040428 146.13584885 -76.13040428 146.13584885 -75.07984924 146.13894653 C-71.41663176 146.16653259 -71.41663176 146.16653259 -68 145 C-68.495 143.515 -68.495 143.515 -69 142 C-80.22 142 -91.44 142 -103 142 Z M-103 148 C-103 148.99 -103 149.98 -103 151 C-101.86492192 152.3621182 -101.86492192 152.3621182 -98.85717773 152.11352539 C-97.46597303 152.11336633 -96.07476239 152.10767506 -94.68359375 152.09765625 C-93.58701195 152.09553383 -93.58701195 152.09553383 -92.46827698 152.09336853 C-90.12464368 152.08775408 -87.78110461 152.07519922 -85.4375 152.0625 C-83.85221492 152.05748686 -82.26692834 152.05292363 -80.68164062 152.04882812 C-76.7877239 152.03777997 -72.89387795 152.02050572 -69 152 C-69 150.68 -69 149.36 -69 148 C-80.22 148 -91.44 148 -103 148 Z M-103 154 C-102.67 155.32 -102.34 156.64 -102 158 C-91.11 158 -80.22 158 -69 158 C-69 156.68 -69 155.36 -69 154 C-80.22 154 -91.44 154 -103 154 Z M-99 161 C-98.67 162.32 -98.34 163.64 -98 165 C-95.54724859 166.2263757 -93.9494219 166.11415314 -91.2109375 166.09765625 C-89.79941406 166.09282227 -89.79941406 166.09282227 -88.359375 166.08789062 C-86.88210937 166.07532227 -86.88210937 166.07532227 -85.375 166.0625 C-83.88613281 166.05573242 -83.88613281 166.05573242 -82.3671875 166.04882812 C-79.9113984 166.03702145 -77.45572896 166.020554 -75 166 C-74.34 164.35 -73.68 162.7 -73 161 C-81.58 161 -90.16 161 -99 161 Z " fill="#7ED856" transform="translate(214,39)"/>
<path d="M0 0 C7.17675398 6.14480243 11.40754792 13.2297636 12.375 22.65234375 C12.73957826 34.05680738 9.84702775 40.07522831 3.9375 49.5 C-1.69844103 58.56150371 -3.30543691 65.38428609 -3.7890625 76.05859375 C-4 79 -4 79 -5 81 C-15.56 81 -26.12 81 -37 81 C-37.37125 77.9475 -37.7425 74.895 -38.125 71.75 C-39.31447972 63.21470728 -41.40796083 56.38045813 -46 49 C-52.44207588 38.47641978 -56.05466889 29.66214547 -53.3828125 17.09765625 C-50.32970588 7.46551013 -44.79891355 1.16125013 -35.875 -3.5 C-23.62100971 -9.35071154 -11.11390654 -7.47206146 0 0 Z " fill="#7ED656" transform="translate(149,94)"/>
<path d="M0 0 C0.33 0 0.66 0 1 0 C1.02578125 0.90363281 1.0515625 1.80726563 1.078125 2.73828125 C1.13484375 3.91777344 1.1915625 5.09726563 1.25 6.3125 C1.29640625 7.48425781 1.3428125 8.65601563 1.390625 9.86328125 C1.71468024 12.97936158 1.71468024 12.97936158 3.53515625 14.69140625 C7.01878056 16.54087399 10.21771196 16.26624633 14.046875 16.07421875 C14.81807678 16.04777786 15.58927856 16.02133698 16.3838501 15.99409485 C18.84003831 15.90652497 21.29471558 15.79731258 23.75 15.6875 C25.4179151 15.62422086 27.08588449 15.56235548 28.75390625 15.50195312 C32.83674794 15.35101594 36.9183702 15.18066749 41 15 C40.34 16.65 39.68 18.3 39 20 C27.45 20 15.9 20 4 20 C4.33 20.66 4.66 21.32 5 22 C16.22 22.33 27.44 22.66 39 23 C39 23.66 39 24.32 39 25 C27.12 25.33 15.24 25.66 3 26 C2.34 24.02 1.68 22.04 1 20 C1.33 19.34 1.66 18.68 2 18 C1.69320312 17.44828125 1.38640625 16.8965625 1.0703125 16.328125 C-0.42517539 13.07516594 -0.19091269 10.30928553 -0.125 6.75 C-0.10695313 5.48671875 -0.08890625 4.2234375 -0.0703125 2.921875 C-0.04710938 1.95765625 -0.02390625 0.9934375 0 0 Z " fill="#6B9956" transform="translate(107,162)"/>
<path d="M0 0 C1.485 0.99 1.485 0.99 3 2 C5.53586848 2.23993655 7.97216031 2.37253219 10.51171875 2.4140625 C11.23994339 2.43342865 11.96816803 2.4527948 12.71846008 2.4727478 C15.04135475 2.53246376 17.36429919 2.57889617 19.6875 2.625 C21.26369332 2.66318721 22.83986595 2.70223938 24.41601562 2.7421875 C28.27717535 2.83815848 32.13843276 2.92221849 36 3 C36 3.66 36 4.32 36 5 C24.78 5 13.56 5 2 5 C2.33 5.99 2.66 6.98 3 8 C19.335 8.495 19.335 8.495 36 9 C35.34 9.33 34.68 9.66 34 10 C33.835 11.155 33.67 12.31 33.5 13.5 C33.335 14.655 33.17 15.81 33 17 C30.44276771 18.27861615 28.63262898 18.11336609 25.7734375 18.09765625 C24.7421875 18.09443359 23.7109375 18.09121094 22.6484375 18.08789062 C21.02808594 18.07532227 21.02808594 18.07532227 19.375 18.0625 C17.74304688 18.05573242 17.74304688 18.05573242 16.078125 18.04882812 C13.38536211 18.03701776 10.69270812 18.02054778 8 18 C8.33 17.34 8.66 16.68 9 16 C15.93 16 22.86 16 30 16 C30.66 14.68 31.32 13.36 32 12 C23.42 12 14.84 12 6 12 C6 11.34 6 10.68 6 10 C4.35 9.67 2.7 9.34 1 9 C0.29925156 5.846632 0 3.27275026 0 0 Z " fill="#749360" transform="translate(109,188)"/>
<path d="M0 0 C2.625 0.375 2.625 0.375 5 1 C6.49394305 5.99213284 5.92917123 10.91457178 5.6875 16.0625 C5.63432617 17.57166992 5.63432617 17.57166992 5.58007812 19.11132812 C5.51530273 20.55862305 5.51530273 20.55862305 5.44921875 22.03515625 C5.41143311 22.9156665 5.37364746 23.79617676 5.3347168 24.70336914 C5 27 5 27 3 30 C0.375 30.1875 0.375 30.1875 -2 30 C-2.04939662 26.04903022 -2.08571755 22.0981797 -2.10986328 18.14697266 C-2.12488107 16.1408864 -2.15028981 14.13488676 -2.17578125 12.12890625 C-2.18544922 10.24365234 -2.18544922 10.24365234 -2.1953125 8.3203125 C-2.20578613 7.15773926 -2.21625977 5.99516602 -2.22705078 4.79736328 C-2 2 -2 2 0 0 Z M0 2 C-0.96958001 4.90874004 -1.12880274 6.78989791 -1.1328125 9.81640625 C-1.13410156 10.74517578 -1.13539062 11.67394531 -1.13671875 12.63085938 C-1.13285156 13.59830078 -1.12898438 14.56574219 -1.125 15.5625 C-1.12886719 16.53380859 -1.13273437 17.50511719 -1.13671875 18.50585938 C-1.13542969 19.43333984 -1.13414063 20.36082031 -1.1328125 21.31640625 C-1.13168457 22.16662354 -1.13055664 23.01684082 -1.12939453 23.89282227 C-1.13451375 26.05726615 -1.13451375 26.05726615 0 28 C0.99 28 1.98 28 3 28 C3 19.42 3 10.84 3 2 C2.01 2 1.02 2 0 2 Z " fill="#7BBB56" transform="translate(127,44)"/>
<path d="M0 0 C9.57 0 19.14 0 29 0 C28.01 0.495 28.01 0.495 27 1 C26.835 2.155 26.67 3.31 26.5 4.5 C26.335 5.655 26.17 6.81 26 8 C23.44276771 9.27861615 21.63262898 9.11336609 18.7734375 9.09765625 C17.7421875 9.09443359 16.7109375 9.09121094 15.6484375 9.08789062 C14.02808594 9.07532227 14.02808594 9.07532227 12.375 9.0625 C10.74304688 9.05573242 10.74304688 9.05573242 9.078125 9.04882812 C6.38536211 9.03701776 3.69270812 9.02054778 1 9 C1.33 8.34 1.66 7.68 2 7 C8.93 7 15.86 7 23 7 C23.66 5.68 24.32 4.36 25 3 C23.845 3.04125 22.69 3.0825 21.5 3.125 C14.28000527 3.14817815 7.13817733 1.98095198 0 1 C0 0.67 0 0.34 0 0 Z " fill="#6AA447" transform="translate(116,197)"/>
<path d="M0 0 C1.92257486 2.88386229 2.2846315 3.74036881 2.59765625 6.984375 C2.67693359 7.75523437 2.75621094 8.52609375 2.83789062 9.3203125 C2.91201172 10.12210938 2.98613281 10.92390625 3.0625 11.75 C3.36837572 14.83403615 3.67963623 17.91743397 4 21 C4.10417236 22.04124023 4.10417236 22.04124023 4.21044922 23.10351562 C4.40208348 24.74561579 4.69173267 26.37575006 5 28 C5.66 28.33 6.32 28.66 7 29 C7 29.99 7 30.98 7 32 C7.62501845 34.03410023 8.29713637 36.05396956 9 38.0625 C11 43.79166667 11 43.79166667 11 46 C11.66 46.33 12.32 46.66 13 47 C13 48.65 13 50.3 13 52 C2.0996087 39.12654084 -0.937809 16.20325546 0 0 Z " fill="#83C45A" transform="translate(7,128)"/>
<path d="M0 0 C0.66 0.33 1.32 0.66 2 1 C1.41992188 1.69222656 1.41992188 1.69222656 0.828125 2.3984375 C-5.14273666 9.87679393 -9.17768363 18.25970638 -9 28 C-8.2778029 34.1517271 -6.8374801 40.09381396 -5 46 C-6.92759992 44.32382616 -7.90534623 43.40227852 -8.5 40.875 C-8.665 40.25625 -8.83 39.6375 -9 39 C-9.99 38.67 -10.98 38.34 -12 38 C-11.34 38 -10.68 38 -10 38 C-10.15855469 37.28585938 -10.31710938 36.57171875 -10.48046875 35.8359375 C-12.33409363 25.71765431 -10.87347744 15.47718254 -7 6 C-4.81124325 3.25819551 -2.99685004 1.90184714 0 0 Z " fill="#7DBA55" transform="translate(101,93)"/>
<path d="M0 0 C0.99 0.33 1.98 0.66 3 1 C3.39141851 4.42491198 3.13357065 5.79010327 1.25 8.75 C-1.10341341 11.10341341 -1.93238751 11.28422375 -5 12 C-5.70394612 13.31403276 -6.36345658 14.6520257 -7 16 C-8.62553283 17.70680947 -10.29115995 19.37660195 -12 21 C-12.66 21.66 -13.32 22.32 -14 23 C-16.625 23.125 -16.625 23.125 -19 23 C-19.8125 21.3125 -19.8125 21.3125 -20 19 C-17.8125 16.5625 -17.8125 16.5625 -15 14 C-14.1028125 12.824375 -14.1028125 12.824375 -13.1875 11.625 C-9.40426038 7.08511245 -4.91134997 3.27423331 0 0 Z M-2.90112305 3.56054688 C-3.59761963 4.27275391 -4.29411621 4.98496094 -5.01171875 5.71875 C-6.14770508 6.86923828 -6.14770508 6.86923828 -7.30664062 8.04296875 C-8.09232422 8.85378906 -8.87800781 9.66460937 -9.6875 10.5 C-10.48478516 11.31082031 -11.28207031 12.12164062 -12.10351562 12.95703125 C-14.0758748 14.96482203 -16.04091492 16.9792687 -18 19 C-17.67 19.99 -17.34 20.98 -17 22 C-12.14752074 19.83672567 -8.95303699 16.28303716 -5.25 12.5625 C-4.55261719 11.88123047 -3.85523438 11.19996094 -3.13671875 10.49804688 C-2.47800781 9.83998047 -1.81929687 9.18191406 -1.140625 8.50390625 C-0.53766602 7.90392822 0.06529297 7.3039502 0.68652344 6.68579102 C2.30730633 4.96176551 2.30730633 4.96176551 2 2 C-1.02345963 1.6827626 -1.02345963 1.6827626 -2.90112305 3.56054688 Z " fill="#7DB45A" transform="translate(182,66)"/>
<path d="M0 0 C4.19685099 4.19685099 4.31600948 9.63171296 4.375 15.3125 C4.3310346 21.78012435 3.35355162 26.46941901 0 32 C-0.65226563 33.10988281 -1.30453125 34.21976563 -1.9765625 35.36328125 C-7.33646716 44.33646716 -7.33646716 44.33646716 -10 47 C-10 41.90019652 -7.29150773 37.49330582 -4 33.6875 C1.14968578 26.76760974 3.04632396 18.50511905 2 10 C1.07585059 6.72435637 1.07585059 6.72435637 0 4 C0 2.68 0 1.36 0 0 Z " fill="#80B75B" transform="translate(157,105)"/>
<path d="M0 0 C1.65 0.66 3.3 1.32 5 2 C5.33 1.34 5.66 0.68 6 0 C7.32 0.33 8.64 0.66 10 1 C-6.44788537 11.47376936 -6.44788537 11.47376936 -12 13 C-12.99 12.67 -13.98 12.34 -15 12 C-14.16855469 11.55269531 -13.33710938 11.10539063 -12.48046875 10.64453125 C-11.39378906 10.03996094 -10.30710938 9.43539062 -9.1875 8.8125 C-8.10855469 8.22082031 -7.02960938 7.62914062 -5.91796875 7.01953125 C-2.8909672 4.92453821 -1.6079931 3.26676492 0 0 Z " fill="#7FCA57" transform="translate(186,225)"/>
<path d="M0 0 C2.125 0.375 2.125 0.375 4 1 C2.98679687 1.52400391 2.98679687 1.52400391 1.953125 2.05859375 C-1.94118403 4.61874135 -4.99688415 7.74526672 -8.25 11.0625 C-8.88679688 11.69994141 -9.52359375 12.33738281 -10.1796875 12.99414062 C-13.49250036 16.19846782 -13.49250036 16.19846782 -16 20 C-11.40693504 18.5140084 -8.56430755 16.14985318 -5 13 C-6.44784523 16.37830553 -8.16332276 18.64961028 -11 21 C-13.75 21.75 -13.75 21.75 -16 22 C-16.75 19.8125 -16.75 19.8125 -17 17 C-14.39623562 12.83397699 -10.77511167 10.08172382 -7 7 C-5.3142876 5.35259924 -3.6436814 3.68933922 -2 2 C-1.34 1.34 -0.68 0.68 0 0 Z " fill="#78B456" transform="translate(88,159)"/>
<path d="M0 0 C5.04806914 0.35991718 7.52239866 3.04398041 10.8125 6.5625 C11.31458984 7.08263672 11.81667969 7.60277344 12.33398438 8.13867188 C13.56529127 9.4168857 14.7839407 10.70727147 16 12 C15.67 12.66 15.34 13.32 15 14 C14.15695313 13.13375 13.31390625 12.2675 12.4453125 11.375 C11.33880643 10.24973959 10.23202112 9.12475372 9.125 8 C8.56941406 7.42765625 8.01382813 6.8553125 7.44140625 6.265625 C5.99865596 4.80549218 4.5025626 3.39850702 3 2 C2.34 2 1.68 2 1 2 C2.61010527 6.07376031 5.53822271 8.76507069 8.625 11.75 C9.3984375 12.50990234 9.3984375 12.50990234 10.1875 13.28515625 C11.45383339 14.52803902 12.7263144 15.76465276 14 17 C10.11566834 17 9.32394504 15.82920314 6.5 13.25 C5.7265625 12.55390625 4.953125 11.8578125 4.15625 11.140625 C2.1786002 9.177306 0.48341756 7.35800576 -1 5 C-0.6875 2.25 -0.6875 2.25 0 0 Z " fill="#80B75A" transform="translate(72,67)"/>
<path d="M0 0 C0.66 0 1.32 0 2 0 C2 0.99 2 1.98 2 3 C10.25 3 18.5 3 27 3 C27 3.66 27 4.32 27 5 C18.42 5 9.84 5 1 5 C0.67 3.35 0.34 1.7 0 0 Z " fill="#75A261" transform="translate(178,122)"/>
<path d="M0 0 C0.99 0.33 1.98 0.66 3 1 C2.625 2.9375 2.625 2.9375 2 5 C-0.50497004 6.25248502 -2.20853274 6.11374406 -5.0078125 6.09765625 C-5.99394531 6.09443359 -6.98007813 6.09121094 -7.99609375 6.08789062 C-9.02863281 6.07951172 -10.06117187 6.07113281 -11.125 6.0625 C-12.68541016 6.05573242 -12.68541016 6.05573242 -14.27734375 6.04882812 C-16.85161962 6.03701952 -19.42578146 6.02055075 -22 6 C-21.67 5.34 -21.34 4.68 -21 4 C-13.74 4 -6.48 4 1 4 C0.67 2.68 0.34 1.36 0 0 Z " fill="#89D634" transform="translate(76,121)"/>
<path d="M0 0 C0.1875 2.875 0.1875 2.875 0 6 C-3 8 -3 8 -5.9375 7.6875 C-8.30231647 7.15662283 -10.6506867 6.59367096 -13 6 C-11.21118264 4.99491199 -9.41885304 3.99607264 -7.625 3 C-6.62726563 2.443125 -5.62953125 1.88625 -4.6015625 1.3125 C-2 0 -2 0 0 0 Z " fill="#87CD62" transform="translate(79,14)"/>
<path d="M0 0 C1.32 0.33 2.64 0.66 4 1 C4 1.99 4 2.98 4 4 C4.639375 4.268125 5.27875 4.53625 5.9375 4.8125 C8 6 8 6 9 9 C9.515625 9.495 10.03125 9.99 10.5625 10.5 C12 12 12 12 12 15 C12.66 15 13.32 15 14 15 C14 15.66 14 16.32 14 17 C14.66 17.33 15.32 17.66 16 18 C15.01 18 14.02 18 13 18 C7.78069076 12.68457088 3.38700903 6.62675681 0 0 Z " fill="#85C25E" transform="translate(24,188)"/>
<path d="M0 0 C0.66 0 1.32 0 2 0 C3.33984375 1.36328125 3.33984375 1.36328125 4.9375 3.3125 C9.63967367 8.86146342 14.81944144 13.90375433 20 19 C19.67 19.66 19.34 20.32 19 21 C18.34 20.67 17.68 20.34 17 20 C17 19.34 17 18.68 17 18 C16.01 17.67 15.02 17.34 14 17 C10.51462059 13.79721892 7.46272858 10.27169198 4.4296875 6.6484375 C3.01216712 4.95881045 3.01216712 4.95881045 1.3203125 3.4140625 C0 2 0 2 0 0 Z " fill="#7AB45B" transform="translate(162,160)"/>
<path d="M0 0 C0 3 0 3 -0.9375 4.8125 C-2.24430347 7.50297774 -2.59786703 10.05102485 -3 13 C-3.66 13 -4.32 13 -5 13 C-5 13.66 -5 14.32 -5 15 C-5.66 15 -6.32 15 -7 15 C-7 13.68 -7 12.36 -7 11 C-7.66 10.34 -8.32 9.68 -9 9 C-6.03 6.03 -3.06 3.06 0 0 Z " fill="#80CF5C" transform="translate(48,33)"/>
<path d="M0 0 C0.33 0.66 0.66 1.32 1 2 C0.22729492 3.67993164 0.22729492 3.67993164 -1.01953125 5.66015625 C-1.46490234 6.37107422 -1.91027344 7.08199219 -2.36914062 7.81445312 C-2.84544922 8.55630859 -3.32175781 9.29816406 -3.8125 10.0625 C-4.27720703 10.80822266 -4.74191406 11.55394531 -5.22070312 12.32226562 C-8.72940199 17.864701 -8.72940199 17.864701 -11 19 C-10.855625 18.443125 -10.71125 17.88625 -10.5625 17.3125 C-9.95541833 14.97307143 -9.95541833 14.97307143 -9.625 12.4375 C-8.92868362 9.72186612 -8.21182643 8.68098809 -6 7 C-5.34 7 -4.68 7 -4 7 C-3.566875 5.5459375 -3.566875 5.5459375 -3.125 4.0625 C-2 1 -2 1 0 0 Z " fill="#85C360" transform="translate(235,180)"/>
<path d="M0 0 C0.33 0 0.66 0 1 0 C1.02578125 0.89203125 1.0515625 1.7840625 1.078125 2.703125 C1.13484375 3.87359375 1.1915625 5.0440625 1.25 6.25 C1.29640625 7.41015625 1.3428125 8.5703125 1.390625 9.765625 C2.08791275 13.46661382 3.11785184 14.67122429 6 17 C5.649375 17.5775 5.29875 18.155 4.9375 18.75 C3.85082593 21.35801776 4.06934867 22.39417629 5 25 C4.34 25.33 3.68 25.66 3 26 C2.26919734 24.02253397 1.60578253 22.01927511 1 20 C1.33 19.34 1.66 18.68 2 18 C1.69320312 17.44828125 1.38640625 16.8965625 1.0703125 16.328125 C-0.42517539 13.07516594 -0.19091269 10.30928553 -0.125 6.75 C-0.10695313 5.48671875 -0.08890625 4.2234375 -0.0703125 2.921875 C-0.04710938 1.95765625 -0.02390625 0.9934375 0 0 Z " fill="#74B24F" transform="translate(107,162)"/>
<path d="M0 0 C6.46751612 3.24872916 11.742695 7.02919664 17 12 C14 13 14 13 11 12 C11 11.01 11 10.02 11 9 C10.484375 8.773125 9.96875 8.54625 9.4375 8.3125 C6.10452995 6.51782382 2.85296329 4.50034985 0 2 C0 1.34 0 0.68 0 0 Z " fill="#86C263" transform="translate(192,22)"/>
<path d="M0 0 C5.22159274 1.435938 9.670042 3.77578306 14 7 C14.33 7.66 14.66 8.32 15 9 C15.66 9 16.32 9 17 9 C17.33 9.99 17.66 10.98 18 12 C13.83740241 10.5199653 10.41490692 8.4553071 6.75 6 C5.69296875 5.29875 4.6359375 4.5975 3.546875 3.875 C1 2 1 2 0 0 Z " fill="#83BF5C" transform="translate(53,220)"/>
<path d="M0 0 C0 0.99 0 1.98 0 3 C-0.66 3 -1.32 3 -2 3 C-2 4.65 -2 6.3 -2 8 C-4.33333333 8 -6.66666667 8 -9 8 C-7.71111971 5.1248055 -6.46733017 2.9928436 -4 1 C-1.8125 0.3125 -1.8125 0.3125 0 0 Z " fill="#84CA5B" transform="translate(111,93)"/>
<path d="M0 0 C2.86632944 2.86632944 3.2315668 6.29316426 4.125 10.125 C4.39763672 11.25615234 4.39763672 11.25615234 4.67578125 12.41015625 C5.12354709 14.27191946 5.56260722 16.13577253 6 18 C5.01 17.67 4.02 17.34 3 17 C3 15.35 3 13.7 3 12 C2.34 11.67 1.68 11.34 1 11 C0.5859375 8.49609375 0.5859375 8.49609375 0.375 5.4375 C0.30023438 4.42558594 0.22546875 3.41367188 0.1484375 2.37109375 C0.09945312 1.58863281 0.05046875 0.80617188 0 0 Z " fill="#83C559" transform="translate(241,82)"/>
<path d="M0 0 C1.27861615 2.55723229 1.11336609 4.36737102 1.09765625 7.2265625 C1.09282227 8.7734375 1.09282227 8.7734375 1.08789062 10.3515625 C1.07951172 11.43179688 1.07113281 12.51203125 1.0625 13.625 C1.05798828 14.71296875 1.05347656 15.8009375 1.04882812 16.921875 C1.03701776 19.61463789 1.02054778 22.30729188 1 25 C1.66 25 2.32 25 3 25 C3 25.66 3 26.32 3 27 C1.68 27 0.36 27 -1 27 C-1.02886537 22.68751391 -1.04675255 18.37505238 -1.0625 14.0625 C-1.07087891 12.83080078 -1.07925781 11.59910156 -1.08789062 10.33007812 C-1.09111328 9.16025391 -1.09433594 7.99042969 -1.09765625 6.78515625 C-1.10289307 5.70113525 -1.10812988 4.61711426 -1.11352539 3.50024414 C-1 1 -1 1 0 0 Z " fill="#60B841" transform="translate(126,47)"/>
<path d="M0 0 C-0.66 1.32 -1.32 2.64 -2 4 C-2.99 4 -3.98 4 -5 4 C-4.67 4.99 -4.34 5.98 -4 7 C-4.969375 7.12375 -5.93875 7.2475 -6.9375 7.375 C-8.4534375 7.684375 -8.4534375 7.684375 -10 8 C-10.33 8.66 -10.66 9.32 -11 10 C-11.99 9.67 -12.98 9.34 -14 9 C-12.37680325 7.68527053 -10.751385 6.37328338 -9.125 5.0625 C-8.22007813 4.33160156 -7.31515625 3.60070312 -6.3828125 2.84765625 C-2.71035941 0 -2.71035941 0 0 0 Z " fill="#8ECB67" transform="translate(63,23)"/>
<path d="M0 0 C3.63 0.33 7.26 0.66 11 1 C7.20541917 2.89729042 4.51318681 3.59611044 0.375 4.25 C-0.77226562 4.44078125 -1.91953125 4.6315625 -3.1015625 4.828125 C-4.05804688 4.88484375 -5.01453125 4.9415625 -6 5 C-6.66 4.34 -7.32 3.68 -8 3 C-6.68 3 -5.36 3 -4 3 C-3.67 2.34 -3.34 1.68 -3 1 C-2.01 1.33 -1.02 1.66 0 2 C0 1.34 0 0.68 0 0 Z " fill="#90CB64" transform="translate(149,241)"/>
<path d="M0 0 C1.32 0.33 2.64 0.66 4 1 C3.67 2.32 3.34 3.64 3 5 C2.34 5 1.68 5 1 5 C1 9.29 1 13.58 1 18 C0.34 17.67 -0.32 17.34 -1 17 C-1.0270043 15.54176788 -1.04639787 14.08339325 -1.0625 12.625 C-1.07410156 11.81289062 -1.08570313 11.00078125 -1.09765625 10.1640625 C-1 8 -1 8 0 6 C-0.66 5.67 -1.32 5.34 -2 5 C-1.34 5 -0.68 5 0 5 C0 3.35 0 1.7 0 0 Z " fill="#71C14D" transform="translate(146,179)"/>
<path d="M0 0 C3.00617269 3.00617269 2.59585316 5.82381598 3 10 C2.01 10 1.02 10 0 10 C0 10.66 0 11.32 0 12 C-0.66 11.67 -1.32 11.34 -2 11 C-2.19622241 6.78121808 -1.80230168 3.82989106 0 0 Z " fill="#86D151" transform="translate(246,100)"/>
<path d="M0 0 C0.99 0.33 1.98 0.66 3 1 C1.54540569 2.64913882 0.08620743 4.29421782 -1.375 5.9375 C-2.18710938 6.85402344 -2.99921875 7.77054688 -3.8359375 8.71484375 C-6 11 -6 11 -8 12 C-7.67 10.35 -7.34 8.7 -7 7 C-6.34 7 -5.68 7 -5 7 C-5 6.34 -5 5.68 -5 5 C-4.01 4.67 -3.02 4.34 -2 4 C-0.79117904 1.99983534 -0.79117904 1.99983534 0 0 Z " fill="#87C15F" transform="translate(221,199)"/>
<path d="M0 0 C0.66 0 1.32 0 2 0 C2.83790789 1.78953185 3.67019396 3.58169695 4.5 5.375 C4.9640625 6.37273437 5.428125 7.37046875 5.90625 8.3984375 C7 11 7 11 7 13 C6.34 13 5.68 13 5 13 C2 6.25 2 6.25 2 4 C1.34 4 0.68 4 0 4 C0 2.68 0 1.36 0 0 Z " fill="#88C35E" transform="translate(233,66)"/>
<path d="M0 0 C-3.36736031 2.82858266 -6.87451958 4.4998253 -11 6 C-11.99 5.67 -12.98 5.34 -14 5 C-12.61217515 4.1533966 -11.21430603 3.32324661 -9.8125 2.5 C-9.03519531 2.0359375 -8.25789062 1.571875 -7.45703125 1.09375 C-4.75896614 -0.10729647 -2.9193018 -0.20741043 0 0 Z " fill="#8BC359" transform="translate(185,232)"/>
<path d="M0 0 C2.109375 0.41796875 2.109375 0.41796875 4 1 C2.37982158 2.33918806 0.75370657 3.6711969 -0.875 5 C-2.23238281 6.11375 -2.23238281 6.11375 -3.6171875 7.25 C-6 9 -6 9 -8 9 C-8 8.01 -8 7.02 -8 6 C-6.35 5.67 -4.7 5.34 -3 5 C-3 4.34 -3 3.68 -3 3 C-1.75 1.3125 -1.75 1.3125 0 0 Z " fill="#85BF5E" transform="translate(204,216)"/>
<path d="M0 0 C3.55780196 0.60990891 6.6828589 1.5783681 10 3 C8.1875 4.0625 8.1875 4.0625 6 5 C5.01 4.67 4.02 4.34 3 4 C2.01 4 1.02 4 0 4 C0 2.68 0 1.36 0 0 Z " fill="#87CA5E" transform="translate(166,10)"/>
<path d="M0 0 C4.75481646 0.57634139 7.97048212 2.55068521 12 5 C12 5.33 12 5.66 12 6 C10.35 6 8.7 6 7 6 C7 5.34 7 4.68 7 4 C5.68 4 4.36 4 3 4 C1.25 2 1.25 2 0 0 Z " fill="#89C661" transform="translate(176,14)"/>
<path d="M0 0 C5.70709064 0.46588495 9.15939723 1.93757784 14 5 C10.08428299 6.305239 8.96107003 5.32239848 5.3125 3.5625 C4.31863281 3.08941406 3.32476562 2.61632812 2.30078125 2.12890625 C1.54152344 1.75636719 0.78226562 1.38382813 0 1 C0 0.67 0 0.34 0 0 Z " fill="#87BC59" transform="translate(71,232)"/>
<path d="M0 0 C1.1055189 0.93590504 2.20935453 1.87379858 3.3125 2.8125 C3.92738281 3.33457031 4.54226562 3.85664062 5.17578125 4.39453125 C6.85424679 5.87172469 8.43882034 7.40039131 10 9 C9.67 9.66 9.34 10.32 9 11 C1.33257403 5.03416856 1.33257403 5.03416856 0 0 Z " fill="#85C365" transform="translate(211,37)"/>
<path d="M0 0 C0 0.99 0 1.98 0 3 C-3.63 3 -7.26 3 -11 3 C-3.71428571 -1.85714286 -3.71428571 -1.85714286 0 0 Z " fill="#96D070" transform="translate(95,9)"/>
<path d="M0 0 C2.9375 0.75 2.9375 0.75 6 2 C6.875 4.125 6.875 4.125 7 6 C7.66 6 8.32 6 9 6 C8.67 6.66 8.34 7.32 8 8 C6.66372225 6.85760183 5.33104612 5.71098945 4 4.5625 C3.2575 3.92441406 2.515 3.28632813 1.75 2.62890625 C1.1725 2.09136719 0.595 1.55382812 0 1 C0 0.67 0 0.34 0 0 Z " fill="#86BF5B" transform="translate(44,212)"/>
<path d="M0 0 C6.4 -0.49230769 6.4 -0.49230769 9.4375 2 C10.2109375 2.99 10.2109375 2.99 11 4 C9.53984709 3.71758359 8.08190207 3.42373386 6.625 3.125 C5.81289062 2.96257812 5.00078125 2.80015625 4.1640625 2.6328125 C2 2 2 2 0 0 Z " fill="#85C158" transform="translate(85,238)"/>
<path d="M0 0 C2.56687367 3.8503105 1.83288724 5.58569763 1 10 C0.34 10 -0.32 10 -1 10 C-1.02689216 8.52093108 -1.04634621 7.04172517 -1.0625 5.5625 C-1.07410156 4.73878906 -1.08570313 3.91507813 -1.09765625 3.06640625 C-1 1 -1 1 0 0 Z " fill="#89C946" transform="translate(247,138)"/>
<path d="M0 0 C2.05078125 0.03255208 4.1015625 0.06510417 6.15234375 0.09765625 C6.15234375 0.42765625 6.15234375 0.75765625 6.15234375 1.09765625 C3.84234375 1.75765625 1.53234375 2.41765625 -0.84765625 3.09765625 C-0.84765625 4.08765625 -0.84765625 5.07765625 -0.84765625 6.09765625 C-1.83765625 5.76765625 -2.82765625 5.43765625 -3.84765625 5.09765625 C-2.72914438 0.14424653 -2.72914438 0.14424653 0 0 Z " fill="#83C44D" transform="translate(51.84765625,119.90234375)"/>
<path d="M0 0 C0.66 0.33 1.32 0.66 2 1 C1.25 8.75 1.25 8.75 -1 11 C-1.14285714 3.57142857 -1.14285714 3.57142857 0 0 Z " fill="#84C358" transform="translate(245,147)"/>
<path d="M0 0 C0.33 0.99 0.66 1.98 1 3 C0.67 3.66 0.34 4.32 0 5 C-0.66 5 -1.32 5 -2 5 C-2 6.32 -2 7.64 -2 9 C-2.99 9 -3.98 9 -5 9 C-3.7508258 5.54074837 -2.32472205 2.85306797 0 0 Z " fill="#86C55F" transform="translate(29,54)"/>
<path d="M0 0 C4.05606165 0.46800711 7.46588679 0.87953208 11 3 C9.35 3.66 7.7 4.32 6 5 C5.67 4.34 5.34 3.68 5 3 C3.35636866 2.27840576 1.68949614 1.60648579 0 1 C0 0.67 0 0.34 0 0 Z " fill="#88CC65" transform="translate(155,7)"/>
<path d="M0 0 C1.32 0.33 2.64 0.66 4 1 C4.625 3.375 4.625 3.375 5 6 C4.34 6.66 3.68 7.32 3 8 C2.01 5.36 1.02 2.72 0 0 Z " fill="#85C45B" transform="translate(106,147)"/>
<path d="M0 0 C0.66 0.33 1.32 0.66 2 1 C2 3 2 5 2 7 C0.68 7 -0.64 7 -2 7 C-1.125 2.25 -1.125 2.25 0 0 Z " fill="#95D14D" transform="translate(99,103)"/>
<path d="M0 0 C0.99 0.33 1.98 0.66 3 1 C2.34 1 1.68 1 1 1 C0.67 3.31 0.34 5.62 0 8 C-0.66 8 -1.32 8 -2 8 C-2.125 5.125 -2.125 5.125 -2 2 C-1.34 1.34 -0.68 0.68 0 0 Z " fill="#75B455" transform="translate(142,197)"/>
<path d="M0 0 C1.485 0.99 1.485 0.99 3 2 C2.67 4.31 2.34 6.62 2 9 C1.34 8.67 0.68 8.34 0 8 C0 5.36 0 2.72 0 0 Z " fill="#6DAF47" transform="translate(109,188)"/>
<path d="M0 0 C1.32 0.33 2.64 0.66 4 1 C4 2.32 4 3.64 4 5 C3.34 5 2.68 5 2 5 C2 4.34 2 3.68 2 3 C1.34 3 0.68 3 0 3 C0 2.01 0 1.02 0 0 Z " fill="#7FCA53" transform="translate(84,85)"/>
<path d="M0 0 C4.875 4.75 4.875 4.75 6 7 C4.1875 6.8125 4.1875 6.8125 2 6 C0.25 3.4375 0.25 3.4375 -1 1 C-0.67 0.67 -0.34 0.34 0 0 Z " fill="#88C366" transform="translate(221,48)"/>
</svg>
